<?xml version="1.0" encoding="UTF-8"?>
<svg id="TSL_logomark" data-name="TSL logomark" xmlns="http://www.w3.org/2000/svg" viewBox="0 0 629.88 132.62">
  <defs>
    <style>
      .cls-1 {
        fill: #4c2432;
      }

      .cls-1, .cls-2, .cls-3, .cls-4 {
        stroke-width: 0px;
      }

      .cls-2 {
        fill: #b06e0e;
      }

      .cls-3 {
        fill: #fff;
      }

      .cls-4 {
        fill: #00539b;
      }
    </style>
  </defs>
  <g id="TSL_logomark-2" data-name="TSL logomark">
    <g>
      <path class="cls-2" d="M238,62.24c2.25,2.25,2.25,5.89,0,8.14l-29.88,27.48c-1.07,1.03-2.51,1.62-4,1.62h-58.16c-3.18,0-5.75-2.58-5.75-5.75v-54.83c0-3.18,2.58-5.75,5.75-5.75h58.16c1.49,0,2.92.58,4,1.62l29.88,27.48Z"/>
      <path class="cls-1" d="M29.1,1.69c2.25-2.25,5.89-2.25,8.13,0l27.48,29.88c1.04,1.07,1.62,2.51,1.62,3.99v58.17c0,3.18-2.58,5.75-5.75,5.75H5.75c-3.18,0-5.75-2.58-5.75-5.75v-58.17c0-1.49.58-2.93,1.62-3.99L29.1,1.69Z"/>
      <path class="cls-4" d="M107.34,130.93c-2.25,2.25-5.89,2.25-8.14,0l-27.48-29.88c-1.03-1.07-1.62-2.51-1.62-3.99v-58.17c0-3.18,2.57-5.75,5.75-5.75h54.83c3.18,0,5.75,2.58,5.75,5.75v58.17c0,1.49-.58,2.93-1.62,3.99l-27.48,29.88Z"/>
      <polygon class="cls-3" points="27.48 53.4 16.95 53.4 16.95 44.96 49.38 44.96 49.38 53.4 38.86 53.4 38.86 87.66 27.48 87.66 27.48 53.4"/>
      <path class="cls-3" d="M88.71,77.14c2.94,1.59,7.04,2.81,11.75,2.81,3.61,0,7.03-.73,7.03-4.16,0-7.95-20.19-2.94-20.19-18.47,0-10.28,10.03-13.09,18.6-13.09,4.1,0,8.14.61,11.01,1.59l-.73,8.81c-2.94-1.35-6.24-1.96-9.48-1.96-2.88,0-7.65.25-7.65,3.98,0,6.91,20.19,2.26,20.19,17.68,0,11.07-9.3,14.07-18.78,14.07-3.98,0-8.93-.61-12.73-1.84l.98-9.42Z"/>
      <polygon class="cls-3" points="157.16 44.96 168.54 44.96 168.54 79.22 186.16 79.22 186.16 87.66 157.16 87.66 157.16 44.96"/>
    </g>
    <g>
      <path class="cls-1" d="M591.92,100.11l-1.03,2.67c-.64,1.67-1.25,2.78-3.28,2.78-.64,0-1.32-.14-1.92-.39l-.39,2.92c.89.36,1.89.46,2.85.46,3.52,0,4.63-1.99,5.77-4.91l8.01-20.51h-3.45l-4.77,13.17h-.07l-5.02-13.17h-3.7l7.01,16.98ZM582.31,83.13h-4.59v-4.73h-3.2v4.73h-3.7v2.78h3.7v8.79c0,2.71.07,5.73,5.02,5.73.64,0,2.14-.14,2.88-.57v-2.92c-.64.39-1.53.5-2.28.5-2.42,0-2.42-1.99-2.42-3.88v-7.66h4.59v-2.78ZM555.62,90.18c0-2.24,2.07-4.91,5.23-4.91s4.81,2.1,4.88,4.91h-10.11ZM569.15,92.74v-1.14c0-4.34-2.28-8.9-8.22-8.9-5.06,0-8.72,3.81-8.72,8.87s3.35,8.87,8.69,8.87c3.24,0,5.7-1.14,7.48-3.45l-2.42-1.85c-1.25,1.53-2.67,2.53-4.63,2.53-2.95,0-5.7-1.96-5.7-4.91h13.53ZM544.23,77.08c0,1.28,1.07,2.35,2.35,2.35s2.35-1.07,2.35-2.35-1.07-2.35-2.35-2.35-2.35,1.07-2.35,2.35M544.98,100h3.2v-16.88h-3.2v16.88ZM541.96,85.41c-1.67-1.82-4.02-2.67-6.48-2.67-5.27,0-8.83,3.7-8.83,8.9s3.63,8.8,8.83,8.8c2.46,0,4.73-.75,6.41-2.6l-2.28-2.28c-1.07,1.25-2.31,1.89-4.09,1.89-3.31,0-5.45-2.56-5.45-5.73s1.78-5.98,5.27-5.98c1.78,0,3.03.64,4.2,1.89l2.42-2.21ZM505.46,91.57c0,4.91,3.95,8.87,8.97,8.87s8.97-3.95,8.97-8.87-3.95-8.87-8.97-8.87-8.97,3.95-8.97,8.87M508.88,91.57c0-3.42,2.14-5.87,5.55-5.87s5.55,2.46,5.55,5.87-2.14,5.87-5.55,5.87-5.55-2.46-5.55-5.87M485.37,97.16c1.71,2.39,4.81,3.49,8.05,3.49,4.84,0,8.76-2.92,8.76-7.8,0-9.08-12.43-5.27-12.43-11.64,0-1.57,1.14-3.85,4.91-3.85,1.96,0,3.63.89,4.49,2.21l2.78-2.53c-1.89-2.31-4.52-2.88-7.26-2.88-6.05,0-8.54,4.09-8.54,7.05,0,9.83,12.42,6.23,12.42,12.03,0,2.78-2.78,4.2-5.02,4.2-2.03,0-4.13-.86-5.34-2.71l-2.81,2.42ZM472.38,85.48c-1.21-1.99-3.52-2.78-5.77-2.78-3.17,0-6.41,1.67-6.41,5.2,0,3.24,2.42,4.13,5.16,4.81,1.39.32,4.06.68,4.06,2.6,0,1.46-1.78,2.14-3.42,2.14-1.85,0-3.06-.96-4.09-1.99l-2.42,1.99c1.67,2.28,3.74,2.99,6.51,2.99,3.35,0,6.84-1.5,6.84-5.31,0-3.17-2.14-4.24-4.91-4.91-1.43-.32-4.31-.6-4.31-2.63,0-1.21,1.32-1.89,2.81-1.89,1.6,0,2.71.75,3.45,1.67l2.49-1.89ZM457.34,85.41c-1.67-1.82-4.02-2.67-6.48-2.67-5.27,0-8.83,3.7-8.83,8.9s3.63,8.8,8.83,8.8c2.46,0,4.74-.75,6.41-2.6l-2.28-2.28c-1.07,1.25-2.31,1.89-4.09,1.89-3.31,0-5.45-2.56-5.45-5.73s1.78-5.98,5.27-5.98c1.78,0,3.03.64,4.2,1.89l2.42-2.21ZM433.97,77.08c0,1.28,1.07,2.35,2.35,2.35s2.35-1.07,2.35-2.35-1.07-2.35-2.35-2.35-2.35,1.07-2.35,2.35M434.72,100h3.2v-16.88h-3.2v16.88ZM430.94,83.13h-4.59v-4.73h-3.2v4.73h-3.7v2.78h3.7v8.79c0,2.71.07,5.73,5.02,5.73.64,0,2.14-.14,2.88-.57v-2.92c-.64.39-1.53.5-2.28.5-2.42,0-2.42-1.99-2.42-3.88v-7.66h4.59v-2.78ZM416.94,85.48c-1.21-1.99-3.53-2.78-5.77-2.78-3.17,0-6.41,1.67-6.41,5.2,0,3.24,2.42,4.13,5.16,4.81,1.39.32,4.06.68,4.06,2.6,0,1.46-1.78,2.14-3.42,2.14-1.85,0-3.06-.96-4.09-1.99l-2.42,1.99c1.67,2.28,3.74,2.99,6.52,2.99,3.35,0,6.84-1.5,6.84-5.31,0-3.17-2.14-4.24-4.91-4.91-1.42-.32-4.31-.6-4.31-2.63,0-1.21,1.32-1.89,2.81-1.89,1.6,0,2.71.75,3.45,1.67l2.49-1.89ZM396.46,77.08c0,1.28,1.07,2.35,2.35,2.35s2.35-1.07,2.35-2.35-1.07-2.35-2.35-2.35-2.35,1.07-2.35,2.35M397.21,100h3.2v-16.88h-3.2v16.88ZM383.3,85.69c3.42,0,5.55,2.46,5.55,5.87s-2.14,5.66-5.55,5.66-5.55-2.24-5.55-5.66,2.13-5.87,5.55-5.87M392.06,83.13h-3.2v2.42h-.07c-1.25-1.82-3.6-2.85-5.87-2.85-5.23,0-8.58,3.88-8.58,8.87-.04,4.91,3.63,8.65,8.58,8.65,2.32,0,4.63-.96,5.84-2.99h.11v2.49c0,2.85-1.32,5.84-6.09,5.84-2.46,0-4.34-.96-6.02-2.74l-2.17,2.71c2.38,2.21,5.06,3.03,8.26,3.03,5.52,0,9.22-3.6,9.22-8.69v-16.73ZM353.21,91.57c0,4.91,3.95,8.87,8.97,8.87s8.97-3.95,8.97-8.87-3.95-8.87-8.97-8.87-8.97,3.95-8.97,8.87M356.63,91.57c0-3.42,2.14-5.87,5.55-5.87s5.55,2.46,5.55,5.87-2.14,5.87-5.55,5.87-5.55-2.46-5.55-5.87M336.35,100h14.99v-3.2h-11.57v-22h-3.42v25.21ZM312.03,97.44c-3.42,0-5.55-2.46-5.55-5.87s2.14-5.87,5.55-5.87,5.55,2.46,5.55,5.87-2.14,5.87-5.55,5.87M320.79,73.09h-3.2v12.46h-.07c-1.14-1.74-3.45-2.85-5.88-2.85-5.2,0-8.58,3.81-8.58,8.87s3.35,8.87,8.58,8.87c2.28,0,4.63-1.03,5.88-2.85h.07v2.42h3.2v-26.92ZM284.03,100h3.2v-8.69c0-3.92,2.03-5.62,4.7-5.62,2.03,0,3.85,1.17,3.85,4.34v9.97h3.21v-10.86c0-4.49-2.85-6.44-6.12-6.44-2.6,0-4.74,1.25-5.56,3.03h-.07v-2.6h-3.2v16.88ZM276.17,91.89v1.07c0,2.28-1.25,4.91-4.81,4.91-2.21,0-3.63-.82-3.63-2.74,0-2.71,3.7-3.24,6.73-3.24h1.71ZM267.34,87.19c1.17-.89,2.35-1.92,4.81-1.92,2.74,0,4.02,1.82,4.02,3.56v.71h-2.35c-5.13,0-9.29,1.5-9.29,5.84,0,3.28,2.71,5.06,5.84,5.06,2.56,0,4.49-.82,5.91-2.99h.07c0,.85.04,1.71.11,2.56h2.85c-.11-.89-.14-1.89-.14-3.06v-8.62c0-2.92-2.06-5.62-7.05-5.62-2.35,0-4.91.82-6.69,2.49l1.92,1.99Z"/>
      <path class="cls-1" d="M616.35,49.34c0-2.24,2.07-4.91,5.23-4.91s4.81,2.1,4.88,4.91h-10.11ZM629.88,51.9v-1.14c0-4.34-2.28-8.9-8.22-8.9-5.06,0-8.72,3.81-8.72,8.86s3.35,8.87,8.69,8.87c3.24,0,5.7-1.14,7.48-3.45l-2.42-1.85c-1.25,1.53-2.67,2.53-4.63,2.53-2.96,0-5.7-1.96-5.7-4.91h13.53ZM611.34,44.57c-1.67-1.81-4.02-2.67-6.48-2.67-5.27,0-8.83,3.7-8.83,8.9s3.63,8.79,8.83,8.79c2.46,0,4.74-.75,6.41-2.6l-2.28-2.28c-1.07,1.25-2.31,1.89-4.09,1.89-3.31,0-5.45-2.56-5.45-5.73s1.78-5.98,5.27-5.98c1.78,0,3.03.64,4.2,1.89l2.42-2.21ZM577,59.16h3.2v-8.69c0-3.92,2.03-5.63,4.7-5.63,2.03,0,3.85,1.18,3.85,4.34v9.97h3.2v-10.86c0-4.49-2.85-6.44-6.12-6.44-2.6,0-4.74,1.25-5.56,3.03h-.07v-2.6h-3.2v16.88ZM559.42,49.34c0-2.24,2.06-4.91,5.23-4.91s4.81,2.1,4.88,4.91h-10.11ZM572.95,51.9v-1.14c0-4.34-2.28-8.9-8.22-8.9-5.05,0-8.72,3.81-8.72,8.86s3.35,8.87,8.69,8.87c3.24,0,5.7-1.14,7.48-3.45l-2.42-1.85c-1.25,1.53-2.67,2.53-4.63,2.53-2.95,0-5.7-1.96-5.7-4.91h13.53ZM548.03,36.24c0,1.28,1.07,2.35,2.35,2.35s2.35-1.07,2.35-2.35-1.07-2.35-2.35-2.35-2.35,1.07-2.35,2.35M548.77,59.16h3.2v-16.88h-3.2v16.88ZM545.75,44.57c-1.67-1.81-4.02-2.67-6.48-2.67-5.27,0-8.83,3.7-8.83,8.9s3.63,8.79,8.83,8.79c2.46,0,4.74-.75,6.41-2.6l-2.28-2.28c-1.07,1.25-2.31,1.89-4.09,1.89-3.31,0-5.45-2.56-5.45-5.73s1.78-5.98,5.27-5.98c1.78,0,3.03.64,4.2,1.89l2.42-2.21ZM510.26,56.32c1.71,2.39,4.81,3.49,8.05,3.49,4.84,0,8.76-2.92,8.76-7.8,0-9.08-12.42-5.27-12.42-11.64,0-1.57,1.14-3.85,4.91-3.85,1.96,0,3.63.89,4.49,2.21l2.78-2.53c-1.89-2.32-4.52-2.88-7.26-2.88-6.05,0-8.54,4.09-8.54,7.05,0,9.83,12.43,6.23,12.43,12.03,0,2.78-2.78,4.2-5.02,4.2-2.03,0-4.13-.85-5.34-2.71l-2.81,2.42ZM481.82,59.16h3.2v-8.69c0-3.92,2.03-5.63,4.7-5.63,2.03,0,3.84,1.18,3.84,4.34v9.97h3.21v-10.86c0-4.49-2.85-6.44-6.12-6.44-2.6,0-4.74,1.25-5.55,3.03h-.07v-2.6h-3.2v16.88ZM459.79,50.73c0,4.91,3.95,8.87,8.97,8.87s8.97-3.95,8.97-8.87-3.95-8.86-8.97-8.86-8.97,3.95-8.97,8.86M463.21,50.73c0-3.42,2.14-5.87,5.55-5.87s5.55,2.46,5.55,5.87-2.14,5.87-5.55,5.87-5.55-2.46-5.55-5.87M451.73,36.24c0,1.28,1.07,2.35,2.35,2.35s2.35-1.07,2.35-2.35-1.07-2.35-2.35-2.35-2.35,1.07-2.35,2.35M452.48,59.16h3.2v-16.88h-3.2v16.88ZM448.7,42.29h-4.59v-4.74h-3.21v4.74h-3.7v2.78h3.7v8.79c0,2.71.07,5.73,5.02,5.73.64,0,2.14-.14,2.88-.57v-2.92c-.64.39-1.53.5-2.28.5-2.42,0-2.42-1.99-2.42-3.88v-7.66h4.59v-2.78ZM431.67,51.05v1.07c0,2.28-1.25,4.91-4.81,4.91-2.21,0-3.63-.82-3.63-2.74,0-2.71,3.7-3.24,6.73-3.24h1.71ZM422.84,46.35c1.17-.89,2.35-1.92,4.81-1.92,2.74,0,4.02,1.82,4.02,3.56v.71h-2.35c-5.13,0-9.29,1.5-9.29,5.84,0,3.27,2.71,5.05,5.84,5.05,2.56,0,4.49-.82,5.91-2.99h.07c0,.85.04,1.71.11,2.56h2.85c-.11-.89-.14-1.89-.14-3.06v-8.62c0-2.92-2.07-5.62-7.05-5.62-2.35,0-4.91.82-6.69,2.49l1.92,1.99ZM416.84,42.29h-4.59v-4.74h-3.2v4.74h-3.7v2.78h3.7v8.79c0,2.71.07,5.73,5.02,5.73.64,0,2.14-.14,2.88-.57v-2.92c-.64.39-1.53.5-2.28.5-2.42,0-2.42-1.99-2.42-3.88v-7.66h4.59v-2.78ZM393.54,59.16h3.21v-8.47c0-3.7,1.71-5.41,4.84-5.41.5,0,1.03.11,1.57.25l.14-3.45c-.43-.14-.93-.21-1.42-.21-2.1,0-4.24,1.25-5.06,3.03h-.07v-2.6h-3.21v16.88ZM371.52,50.73c0,4.91,3.95,8.87,8.97,8.87s8.97-3.95,8.97-8.87-3.95-8.86-8.97-8.86-8.97,3.95-8.97,8.86M374.94,50.73c0-3.42,2.14-5.87,5.55-5.87s5.55,2.46,5.55,5.87-2.13,5.87-5.55,5.87-5.55-2.46-5.55-5.87M359.37,44.85c3.42,0,5.55,2.46,5.55,5.87s-2.14,5.87-5.55,5.87-5.55-2.46-5.55-5.87,2.14-5.87,5.55-5.87M350.61,69.2h3.2v-12.46h.07c1.14,1.75,3.45,2.85,5.87,2.85,5.2,0,8.58-3.81,8.58-8.87s-3.35-8.86-8.58-8.86c-2.28,0-4.63,1.03-5.87,2.85h-.07v-2.42h-3.2v26.92ZM346.16,44.64c-1.21-1.99-3.53-2.78-5.77-2.78-3.17,0-6.41,1.67-6.41,5.2,0,3.24,2.42,4.13,5.16,4.81,1.39.32,4.06.68,4.06,2.6,0,1.46-1.78,2.14-3.42,2.14-1.85,0-3.06-.96-4.09-1.99l-2.42,1.99c1.67,2.28,3.74,2.99,6.52,2.99,3.35,0,6.84-1.5,6.84-5.3,0-3.17-2.14-4.24-4.91-4.91-1.42-.32-4.31-.61-4.31-2.63,0-1.21,1.32-1.89,2.81-1.89,1.6,0,2.71.75,3.45,1.67l2.49-1.89ZM314.81,59.16h3.2v-8.69c0-3.92,2.03-5.63,4.7-5.63,2.03,0,3.84,1.18,3.84,4.34v9.97h3.2v-10.86c0-4.49-2.85-6.44-6.12-6.44-2.6,0-4.74,1.25-5.55,3.03h-.07v-2.6h-3.2v16.88ZM306.95,51.05v1.07c0,2.28-1.25,4.91-4.81,4.91-2.21,0-3.63-.82-3.63-2.74,0-2.71,3.7-3.24,6.73-3.24h1.71ZM298.12,46.35c1.18-.89,2.35-1.92,4.81-1.92,2.74,0,4.02,1.82,4.02,3.56v.71h-2.35c-5.13,0-9.29,1.5-9.29,5.84,0,3.27,2.71,5.05,5.84,5.05,2.56,0,4.49-.82,5.91-2.99h.07c0,.85.04,1.71.11,2.56h2.85c-.11-.89-.14-1.89-.14-3.06v-8.62c0-2.92-2.07-5.62-7.05-5.62-2.35,0-4.91.82-6.69,2.49l1.92,1.99ZM283.2,59.16h3.21v-8.47c0-3.7,1.71-5.41,4.84-5.41.5,0,1.03.11,1.57.25l.14-3.45c-.43-.14-.93-.21-1.42-.21-2.1,0-4.24,1.25-5.06,3.03h-.07v-2.6h-3.21v16.88ZM271.43,59.16h3.42v-22h8.12v-3.2h-19.65v3.2h8.12v22Z"/>
    </g>
  </g>
</svg>