<?xml version="1.0" encoding="UTF-8"?>
<svg id="TSL_mark" data-name="TSL mark" xmlns="http://www.w3.org/2000/svg" viewBox="0 0 239.68 132.62">
  <defs>
    <style>
      .cls-1 {
        fill: #4c2432;
      }

      .cls-1, .cls-2, .cls-3, .cls-4 {
        stroke-width: 0px;
      }

      .cls-2 {
        fill: #b06e0e;
      }

      .cls-3 {
        fill: #fff;
      }

      .cls-4 {
        fill: #00539b;
      }
    </style>
  </defs>
  <path class="cls-2" d="M238,62.24c2.25,2.25,2.25,5.89,0,8.14l-29.87,27.48c-1.07,1.03-2.51,1.62-4,1.62h-58.16c-3.18,0-5.75-2.58-5.75-5.75v-54.83c0-3.18,2.58-5.75,5.75-5.75h58.16c1.49,0,2.92.58,4,1.62l29.87,27.48Z"/>
  <path class="cls-1" d="M29.1,1.69c2.25-2.25,5.89-2.25,8.13,0l27.48,29.88c1.04,1.07,1.62,2.51,1.62,3.99v58.17c0,3.18-2.58,5.75-5.75,5.75H5.75c-3.18,0-5.75-2.58-5.75-5.75v-58.17c0-1.49.58-2.93,1.62-3.99L29.1,1.69Z"/>
  <path class="cls-4" d="M107.34,130.93c-2.25,2.25-5.89,2.25-8.13,0l-27.48-29.88c-1.04-1.07-1.62-2.51-1.62-3.99v-58.17c0-3.18,2.58-5.75,5.75-5.75h54.83c3.18,0,5.75,2.58,5.75,5.75v58.17c0,1.49-.58,2.93-1.62,3.99l-27.48,29.88Z"/>
  <polygon class="cls-3" points="27.48 53.4 16.95 53.4 16.95 44.96 49.38 44.96 49.38 53.4 38.86 53.4 38.86 87.66 27.48 87.66 27.48 53.4"/>
  <path class="cls-3" d="M88.71,77.14c2.94,1.59,7.04,2.81,11.75,2.81,3.61,0,7.03-.73,7.03-4.16,0-7.95-20.19-2.94-20.19-18.47,0-10.28,10.03-13.09,18.6-13.09,4.1,0,8.14.61,11.01,1.59l-.73,8.81c-2.93-1.35-6.24-1.96-9.48-1.96-2.88,0-7.65.25-7.65,3.98,0,6.91,20.19,2.26,20.19,17.68,0,11.07-9.3,14.07-18.78,14.07-3.98,0-8.93-.61-12.73-1.84l.98-9.42Z"/>
  <polygon class="cls-3" points="157.16 44.96 168.54 44.96 168.54 79.22 186.16 79.22 186.16 87.66 157.16 87.66 157.16 44.96"/>
</svg>